<!DOCTYPE svg PUBLIC "-//W3C//DTD SVG 20010904//EN" "http://www.w3.org/TR/2001/REC-SVG-20010904/DTD/svg10.dtd">
<svg version="1.0" xmlns="http://www.w3.org/2000/svg" width="234px" height="71px" viewBox="0 0 2340 710" preserveAspectRatio="xMidYMid meet">
<g id="layer101" fill="#01c1cd" stroke="none">
 <path d="M995 615 l-39 -55 -141 0 c-124 -1 -143 -3 -164 -20 -13 -12 -21 -26 -17 -35 4 -13 39 -15 230 -15 124 0 227 -3 229 -7 3 -5 -41 -7 -96 -5 l-102 3 -38 -56 -38 -55 -78 0 c-63 0 -81 -4 -94 -18 -35 -39 -17 -52 71 -52 31 0 52 -4 47 -8 -6 -4 -34 -39 -63 -79 -29 -39 -58 -73 -64 -75 -6 -2 -8 -10 -4 -16 5 -9 81 -12 286 -12 l278 0 47 -55 c26 -30 53 -55 61 -55 7 0 30 25 51 55 l38 54 126 1 c120 0 127 1 148 24 13 14 20 29 16 35 -4 7 -82 12 -223 13 -119 1 -169 4 -110 5 l106 4 38 54 c37 55 38 55 89 55 54 0 85 19 85 53 0 15 -22 17 -237 17 -131 0 -242 4 -248 8 -5 4 -21 21 -35 37 -24 30 -24 29 11 -2 l35 -33 196 0 197 0 52 75 c29 41 56 75 61 75 4 0 8 7 8 15 0 13 -38 15 -284 15 l-284 0 -42 55 c-23 30 -48 55 -54 55 -6 0 -29 -25 -51 -55z m57 -322 c-50 -2 -134 -2 -185 0 -50 1 -9 3 93 3 102 0 143 -2 92 -3z"/>
 </g>
<g id="layer102" fill="#35ced7" stroke="none">
 <path d="M995 615 l-39 -55 -141 0 c-124 -1 -143 -3 -164 -20 -13 -12 -21 -26 -17 -35 4 -13 39 -15 230 -15 124 0 227 -3 229 -7 3 -5 -41 -7 -96 -5 l-102 3 -38 -56 -38 -55 -78 0 c-63 0 -81 -4 -94 -18 -35 -39 -17 -52 71 -52 31 0 52 -4 47 -8 -6 -4 -34 -39 -63 -79 -29 -39 -58 -73 -64 -75 -6 -2 -8 -10 -4 -16 5 -9 81 -12 286 -12 l278 0 47 -55 c26 -30 53 -55 61 -55 7 0 30 25 51 55 l38 54 126 1 c120 0 127 1 148 24 13 14 20 29 16 35 -4 7 -82 12 -223 13 -119 1 -169 4 -110 5 l106 4 38 54 c37 55 38 55 89 55 54 0 85 19 85 53 0 15 -22 17 -234 17 -235 0 -266 3 -266 23 0 7 4 7 12 -1 9 -9 69 -12 209 -12 l198 0 52 75 c29 41 56 75 61 75 4 0 8 7 8 15 0 13 -38 15 -284 15 l-284 0 -42 55 c-23 30 -48 55 -54 55 -6 0 -29 -25 -51 -55z m112 -31 l31 -39 272 -5 271 -5 -48 -68 -49 -69 -198 2 -198 1 -52 54 -52 55 -218 0 c-193 0 -217 2 -206 15 10 12 41 15 156 15 l143 0 43 61 c40 57 44 59 58 42 8 -11 29 -37 47 -59z m-5 -134 c14 -10 27 -17 30 -15 3 3 13 -5 24 -17 l19 -23 -22 19 c-34 29 -28 7 9 -31 l32 -33 234 0 c207 0 233 -2 222 -15 -8 -10 -31 -15 -66 -15 l-53 0 -42 -60 -42 -60 -97 0 -96 0 -58 60 -58 60 -244 0 c-212 0 -243 2 -238 15 5 12 24 15 85 15 l78 0 27 38 c62 83 60 82 149 82 67 0 87 -4 107 -20z m-50 -157 c-50 -2 -134 -2 -185 0 -50 1 -9 3 93 3 102 0 143 -2 92 -3z m146 -73 l59 -61 207 3 c113 2 206 1 206 -3 0 -22 -34 -29 -150 -29 l-126 0 -43 -61 -44 -62 -56 62 -56 61 -266 3 -267 2 52 72 51 72 187 0 187 1 59 -60z"/>
 </g>
<g id="layer103" fill="#61d9e0" stroke="none">
 <path d="M995 615 l-39 -55 -141 0 c-124 -1 -143 -3 -164 -20 -13 -12 -21 -26 -17 -35 4 -13 39 -15 230 -15 124 0 227 -3 229 -7 3 -5 -41 -7 -96 -5 l-102 3 -38 -56 -38 -55 -78 0 c-63 0 -81 -4 -94 -18 -35 -39 -17 -52 71 -52 31 0 52 -4 47 -8 -6 -4 -34 -39 -63 -79 -29 -39 -58 -73 -64 -75 -6 -2 -8 -10 -4 -16 5 -9 80 -12 284 -12 l277 1 53 -58 c29 -32 49 -49 43 -38 -5 11 -30 41 -56 68 l-46 47 -265 0 c-146 0 -264 3 -262 8 2 4 25 37 52 75 l50 67 191 0 192 0 50 -55 51 -55 212 0 c196 0 211 -1 208 -18 -3 -15 -19 -17 -135 -20 l-132 -3 -29 -37 c-16 -20 -37 -50 -47 -67 l-17 -30 26 30 c15 17 34 42 44 58 l16 27 126 0 c121 0 128 1 149 24 13 14 20 29 16 35 -4 7 -82 12 -223 13 -119 1 -169 4 -110 5 l106 4 38 54 c37 55 38 55 89 55 54 0 85 19 85 53 0 15 -23 17 -242 19 l-243 3 202 2 202 3 52 75 c29 41 56 75 61 75 4 0 8 7 8 15 0 13 -38 15 -284 15 l-284 0 -42 55 c-23 30 -48 55 -54 55 -6 0 -29 -25 -51 -55z m423 -65 c151 0 272 -4 270 -8 -2 -4 -25 -40 -53 -80 l-50 -71 -197 -1 -196 0 -42 48 c-23 26 -51 52 -63 59 -15 9 -86 12 -229 13 -115 0 -208 4 -208 8 0 26 30 32 170 32 l145 1 39 56 39 56 51 -57 51 -57 273 1z m-313 -100 c10 -11 21 -18 25 -15 4 2 20 -9 35 -25 16 -17 25 -30 21 -30 -4 0 -19 12 -33 28 l-26 27 26 -35 25 -35 241 -3 c132 -1 241 -6 241 -10 -1 -21 -21 -31 -70 -34 -53 -3 -55 -4 -98 -60 l-43 -58 -101 0 -100 0 -57 60 -58 60 -241 0 c-133 0 -242 4 -242 8 0 22 30 32 100 32 l75 0 38 55 38 55 93 0 c80 0 95 -3 111 -20z m-53 -157 c-50 -2 -134 -2 -185 0 -50 1 -9 3 93 3 102 0 143 -2 92 -3z"/>
 </g>
<g id="layer104" fill="#90e4e9" stroke="none">
 <path d="M995 614 l-39 -54 -141 0 c-124 -1 -143 -3 -164 -20 -13 -12 -21 -26 -17 -35 4 -13 41 -15 233 -17 125 -1 183 -4 128 -6 l-100 -3 -29 -42 -28 -42 33 37 34 37 97 3 c94 3 97 2 112 -22 8 -14 25 -34 38 -45 17 -15 19 -16 9 -2 -7 9 -10 17 -5 17 4 0 -10 18 -31 40 l-39 40 -216 0 c-119 0 -220 3 -223 7 -4 3 0 15 10 25 14 16 33 18 158 18 l143 0 42 56 c23 30 40 57 38 59 -2 2 -21 -21 -43 -51z m150 -184 c3 -5 4 -10 1 -10 -3 0 -8 5 -11 10 -3 6 -4 10 -1 10 3 0 8 -4 11 -10z"/>
 <path d="M1059 655 c6 -11 27 -38 47 -60 25 -27 30 -31 16 -10 -30 43 -75 94 -63 70z"/>
 <path d="M1422 553 l278 -3 -36 -53 c-20 -28 -26 -41 -15 -27 12 14 30 36 41 48 11 13 20 28 20 33 0 5 -117 8 -282 7 l-283 -3 277 -2z"/>
 <path d="M1604 415 l-17 -26 -202 3 c-175 3 -202 1 -200 -12 2 -13 37 -15 238 -18 185 -2 237 -5 237 -15 0 -25 -25 -37 -76 -37 -29 0 -55 -3 -57 -7 -3 -5 20 -6 51 -5 60 4 92 22 92 54 0 17 -14 18 -242 20 l-243 3 202 2 202 3 21 30 c12 17 19 30 16 30 -3 0 -13 -11 -22 -25z"/>
 <path d="M825 380 c-3 -5 -41 -10 -84 -10 -63 0 -81 -4 -94 -18 -35 -39 -17 -52 71 -52 31 0 52 -4 47 -8 -6 -4 -34 -39 -63 -79 -29 -39 -58 -73 -64 -75 -6 -2 -8 -10 -4 -16 5 -9 80 -12 284 -12 l277 1 50 -54 c28 -29 41 -41 30 -27 -11 14 -33 40 -49 58 l-30 32 -273 0 c-150 0 -273 3 -273 8 1 4 29 43 63 87 l63 80 177 3 178 2 61 -65 61 -65 214 0 c117 0 213 -4 213 -8 0 -5 -8 -16 -18 -25 -15 -14 -41 -17 -143 -17 l-125 0 -43 -62 c-23 -35 -31 -50 -16 -33 14 17 33 42 43 57 l16 28 126 0 c121 0 128 1 149 24 13 14 20 29 16 35 -4 7 -81 12 -223 13 -166 1 -195 3 -122 8 l95 6 -96 2 -96 2 -51 55 -51 55 -244 0 c-134 0 -247 3 -250 6 -3 4 -2 15 4 25 8 16 22 19 88 19 58 0 82 4 91 15 7 8 10 15 7 15 -3 0 -9 -4 -12 -10z"/>
 <path d="M1484 243 c-15 -21 -33 -41 -38 -45 -8 -5 -8 -8 0 -8 6 0 25 20 43 45 39 54 35 60 -5 8z"/>
 </g>
<g id="layer105" fill="#cdf3f5" stroke="none">
 <path d="M1050 666 c0 -2 8 -10 18 -17 15 -13 16 -12 3 4 -13 16 -21 21 -21 13z"/>
 <path d="M999 623 c-13 -16 -12 -17 4 -4 16 13 21 21 13 21 -2 0 -10 -8 -17 -17z"/>
 <path d="M1090 616 c0 -2 8 -10 18 -17 15 -13 16 -12 3 4 -13 16 -21 21 -21 13z"/>
 <path d="M974 588 c-4 -7 -3 -8 4 -4 7 4 12 9 12 12 0 8 -9 4 -16 -8z"/>
 <path d="M738 553 c39 -2 105 -2 145 0 39 1 7 3 -73 3 -80 0 -112 -2 -72 -3z"/>
 <path d="M1287 553 c79 -2 207 -2 285 0 79 1 15 3 -142 3 -157 0 -221 -2 -143 -3z"/>
 <path d="M639 497 c4 -4 106 -6 227 -5 l219 3 -227 5 c-125 3 -224 2 -219 -3z"/>
 <path d="M1664 498 c-4 -7 -3 -8 4 -4 7 4 12 9 12 12 0 8 -9 4 -16 -8z"/>
 <path d="M1084 478 c-4 -7 -4 -10 1 -6 4 4 16 -3 25 -15 10 -12 21 -19 24 -16 3 3 -5 16 -18 28 -19 18 -26 20 -32 9z"/>
 <path d="M1644 468 c-4 -7 -3 -8 4 -4 12 7 16 16 8 16 -3 0 -8 -5 -12 -12z"/>
 <path d="M864 438 c-4 -7 -3 -8 4 -4 7 4 12 9 12 12 0 8 -9 4 -16 -8z"/>
 <path d="M1614 428 c-4 -7 -3 -8 4 -4 12 7 16 16 8 16 -3 0 -8 -5 -12 -12z"/>
 <path d="M844 408 c-4 -7 -3 -8 4 -4 7 4 12 9 12 12 0 8 -9 4 -16 -8z"/>
 <path d="M1140 416 c0 -2 8 -10 18 -17 15 -13 16 -12 3 4 -13 16 -21 21 -21 13z"/>
 <path d="M1589 393 c-13 -16 -12 -17 4 -4 16 13 21 21 13 21 -2 0 -10 -8 -17 -17z"/>
 <path d="M1185 380 c-3 -6 1 -7 9 -4 18 7 21 14 7 14 -6 0 -13 -4 -16 -10z"/>
 <path d="M744 373 c-70 -3 -84 -7 -100 -26 -19 -22 -19 -22 2 -4 16 13 39 17 97 17 42 0 79 5 82 10 3 6 5 9 3 8 -2 -1 -40 -4 -84 -5z"/>
 <path d="M1318 363 c68 -2 176 -2 240 0 64 1 9 3 -123 3 -132 0 -185 -2 -117 -3z"/>
 <path d="M1654 328 c-4 -7 -3 -8 4 -4 12 7 16 16 8 16 -3 0 -8 -5 -12 -12z"/>
 <path d="M652 305 c3 -3 114 -6 246 -5 132 0 242 -3 244 -7 2 -5 17 -19 33 -33 27 -22 27 -21 -4 13 l-35 37 -245 0 c-134 0 -242 -2 -239 -5z"/>
 <path d="M1558 303 c18 -2 45 -2 60 0 15 2 0 4 -33 4 -33 0 -45 -2 -27 -4z"/>
 <path d="M1504 268 c-4 -7 -3 -8 4 -4 12 7 16 16 8 16 -3 0 -8 -5 -12 -12z"/>
 <path d="M734 258 c-4 -7 -3 -8 4 -4 7 4 12 9 12 12 0 8 -9 4 -16 -8z"/>
 <path d="M1484 238 c-4 -7 -3 -8 4 -4 7 4 12 9 12 12 0 8 -9 4 -16 -8z"/>
 <path d="M704 218 c-4 -7 -3 -8 4 -4 7 4 12 9 12 12 0 8 -9 4 -16 -8z"/>
 <path d="M1224 201 c20 -22 26 -25 26 -13 0 4 -10 13 -22 21 -23 14 -23 14 -4 -8z"/>
 <path d="M1454 198 c-4 -7 -3 -8 4 -4 7 4 12 9 12 12 0 8 -9 4 -16 -8z"/>
 <path d="M679 183 c-13 -16 -12 -17 4 -4 16 13 21 21 13 21 -2 0 -10 -8 -17 -17z"/>
 <path d="M1318 173 c29 -2 74 -2 100 0 26 2 2 3 -53 3 -55 0 -76 -1 -47 -3z"/>
 <path d="M1674 160 c0 -13 4 -16 10 -10 7 7 7 13 0 20 -6 6 -10 3 -10 -10z"/>
 <path d="M646 145 c-41 -31 -8 -35 272 -33 l277 3 -272 2 c-150 2 -273 7 -273 11 0 4 5 13 12 20 16 16 7 15 -16 -3z"/>
 <path d="M1463 113 c37 -2 96 -2 130 0 34 2 4 3 -68 3 -71 0 -99 -1 -62 -3z"/>
 <path d="M1200 106 c0 -2 8 -10 18 -17 15 -13 16 -12 3 4 -13 16 -21 21 -21 13z"/>
 <path d="M1374 88 c-4 -7 -3 -8 4 -4 7 4 12 9 12 12 0 8 -9 4 -16 -8z"/>
 <path d="M1349 53 c-13 -16 -12 -17 4 -4 16 13 21 21 13 21 -2 0 -10 -8 -17 -17z"/>
 <path d="M1265 30 c10 -11 20 -20 23 -20 3 0 -3 9 -13 20 -10 11 -20 20 -23 20 -3 0 3 -9 13 -20z"/>
 <path d="M1324 18 c-4 -7 -3 -8 4 -4 12 7 16 16 8 16 -3 0 -8 -5 -12 -12z"/>
 </g>

</svg>